<svg id="Layer_1" data-name="Layer 1" xmlns="http://www.w3.org/2000/svg" viewBox="0 0 565 565"><defs><style>.cls-1{fill:#405659;}.cls-2{fill:#6e9399;}.cls-3{fill:#9cd2da;}.cls-4{fill:#8ab8bf;}.cls-5{fill:#bdf3f4;}.cls-6{fill:#fff;}</style></defs><path class="cls-1" d="M282.58,282.49,209.47,9.63A279,279,0,0,1,282.58,0Z"/><path class="cls-2" d="M282.58,282.49,9.72,355.6C-30.66,204.9,58.77,50,209.47,9.63h0Z"/><path class="cls-3" d="M282.58,282.49,448.62,511C322.41,602.73,145.74,574.75,54,448.53,32,418.24,19.41,391.77,9.72,355.6Z"/><path class="cls-4" d="M282.58,282.49,499,100.91c100.29,119.51,84.7,297.7-34.82,398-4.78,4-10.49,8.47-15.54,12.14Z"/><path class="cls-5" d="M282.58,282.49V0C370,0,442.82,34,499,100.91Z"/><path class="cls-1" d="M111,209.82h11.36v3h-15v-1.54c0-4.89,2.05-6.37,7.36-7.47,2.78-.57,4.07-.87,4.07-2.07s-1-1.72-3.38-1.72a11.31,11.31,0,0,0-6,1.65l-1.28-2.85a13,13,0,0,1,7.22-1.91c4.46,0,7.06,1.52,7.06,4.95s-2.65,4-6.83,4.89C112.55,207.43,111.22,207.82,111,209.82Z"/><path class="cls-1" d="M140.68,207.63c0,3.36-2.85,5.5-7.29,5.5-5.36,0-8.62-3-8.62-8s3.63-8.23,9.31-8.23a11.46,11.46,0,0,1,5.91,1.43l-1.13,2.85a8.64,8.64,0,0,0-4.57-1.17c-3.68,0-5.94,1.95-5.94,5.19v.23a8.2,8.2,0,0,1,6.37-2.66C138.43,202.81,140.68,204.65,140.68,207.63Zm-3.59.12c0-1.31-1-2-3.12-2a7.84,7.84,0,0,0-5.11,1.89c.76,1.52,2.35,2.35,4.58,2.35S137.09,209.13,137.09,207.75Z"/><path class="cls-1" d="M142.55,201.43a4.58,4.58,0,1,1,4.57,4.36A4.28,4.28,0,0,1,142.55,201.43Zm6.78,0a2.21,2.21,0,1,0-2.21,2.32A2.16,2.16,0,0,0,149.33,201.43Zm7.13-4.21h2.41l-9.59,15.63h-2.41ZM154,208.65a4.59,4.59,0,1,1,4.58,4.37A4.28,4.28,0,0,1,154,208.65Zm6.79,0a2.21,2.21,0,1,0-2.21,2.32A2.16,2.16,0,0,0,160.83,208.65Z"/><path class="cls-1" d="M204.53,427.23c0,3.06-2.72,4.72-7.75,4.72a13.93,13.93,0,0,1-8.17-2.19l1.31-2.85a11.55,11.55,0,0,0,6.81,1.93c2.74,0,4.21-.69,4.21-2,0-1.1-.88-1.59-2.92-1.59h-5v-3h4.49c2,0,2.85-.46,2.85-1.54s-1.24-1.86-3.66-1.86a11.46,11.46,0,0,0-6.07,1.63l-1.24-2.8a13.49,13.49,0,0,1,7.43-1.93c4.64,0,7.13,1.56,7.13,4.43a3.3,3.3,0,0,1-2.53,3.36C203.47,424.13,204.53,425.34,204.53,427.23Z"/><path class="cls-1" d="M219.59,428.63v3H207.15v-3h4.44v-9.24l-4.44,2.09v-3.36l4.44-2.09h3.54v12.6Z"/><path class="cls-1" d="M221.34,420.24a4.58,4.58,0,1,1,4.58,4.37A4.29,4.29,0,0,1,221.34,420.24Zm6.78,0a2.21,2.21,0,1,0-2.2,2.32A2.15,2.15,0,0,0,228.12,420.24Zm7.13-4.21h2.42l-9.59,15.64h-2.41Zm-2.41,11.43a4.58,4.58,0,1,1,4.58,4.37A4.28,4.28,0,0,1,232.84,427.46Zm6.78,0a2.21,2.21,0,1,0-2.2,2.32A2.15,2.15,0,0,0,239.62,427.46Z"/><path class="cls-1" d="M428.45,302.93h11.36v3H424.86v-1.54c0-4.9,2.05-6.37,7.36-7.47,2.78-.58,4.07-.88,4.07-2.07s-1-1.73-3.38-1.73a11.29,11.29,0,0,0-6,1.66L425.6,292a13,13,0,0,1,7.22-1.91c4.46,0,7.06,1.51,7.06,4.94s-2.64,4-6.83,4.9C430,300.54,428.7,300.93,428.45,302.93Z"/><path class="cls-1" d="M457.5,300.93c0,3.5-2.67,5.32-7.52,5.32a13.58,13.58,0,0,1-8-2.19l1.31-2.85a11.45,11.45,0,0,0,6.64,1.93c2.62,0,4-.73,4-2.14s-1.2-2-3.7-2a9.8,9.8,0,0,0-4.95,1.12l-2.48-.66.85-9.16h12.95v3H446.51l-.39,4.14a9.16,9.16,0,0,1,5.31-1.5C455.29,296,457.5,297.76,457.5,300.93Z"/><path class="cls-1" d="M459.41,294.54a4.58,4.58,0,1,1,4.58,4.37A4.29,4.29,0,0,1,459.41,294.54Zm6.78,0a2.21,2.21,0,1,0-2.2,2.32A2.15,2.15,0,0,0,466.19,294.54Zm7.13-4.21h2.42L466.15,306h-2.42Zm-2.41,11.43a4.58,4.58,0,1,1,4.57,4.37A4.28,4.28,0,0,1,470.91,301.76Zm6.78,0a2.21,2.21,0,1,0-2.21,2.32A2.16,2.16,0,0,0,477.69,301.76Z"/><path class="cls-1" d="M347.1,128.11v3H334.66v-3h4.44v-9.25l-4.44,2.1V117.6l4.44-2.09h3.54v12.6Z"/><path class="cls-1" d="M365.41,127.72h-2.3v3.42h-3.54v-3.42H348.92v-3.54l10.28-8.67h3.91v9.17h2.3Zm-5.84-3V119l-6.72,5.66Z"/><path class="cls-1" d="M367.12,119.71a4.58,4.58,0,1,1,4.57,4.37A4.27,4.27,0,0,1,367.12,119.71Zm6.78,0a2.21,2.21,0,1,0-2.21,2.33A2.16,2.16,0,0,0,373.9,119.71Zm7.13-4.2h2.41l-9.59,15.63h-2.41Zm-2.42,11.42a4.58,4.58,0,1,1,4.58,4.37A4.28,4.28,0,0,1,378.61,126.93Zm6.79,0a2.21,2.21,0,1,0-2.21,2.33A2.16,2.16,0,0,0,385.4,126.93Z"/><path class="cls-6" d="M249.72,59.75h-2.3v3.43h-3.54V59.75H233.24V56.21l10.28-8.67h3.9v9.18h2.3Zm-5.84-3V51.06l-6.71,5.66Z"/><path class="cls-6" d="M251.43,51.75A4.58,4.58,0,1,1,256,56.12,4.28,4.28,0,0,1,251.43,51.75Zm6.78,0a2.21,2.21,0,1,0-2.2,2.32A2.15,2.15,0,0,0,258.21,51.75Zm7.13-4.21h2.42l-9.59,15.64h-2.42ZM262.93,59a4.58,4.58,0,1,1,4.57,4.37A4.28,4.28,0,0,1,262.93,59Zm6.78,0a2.21,2.21,0,1,0-2.21,2.32A2.16,2.16,0,0,0,269.71,59Z"/><path class="cls-6" d="M345.64,126.44v3H333.2v-3h4.44V117.2l-4.44,2.09v-3.35l4.44-2.1h3.54v12.6Z"/><path class="cls-6" d="M364,126.05h-2.3v3.43h-3.54v-3.43H347.46v-3.54l10.28-8.67h3.91V123H364Zm-5.84-3v-5.66L351.39,123Z"/><path class="cls-6" d="M365.66,118.05a4.58,4.58,0,1,1,4.57,4.37A4.28,4.28,0,0,1,365.66,118.05Zm6.78,0a2.21,2.21,0,1,0-2.21,2.32A2.16,2.16,0,0,0,372.44,118.05Zm7.13-4.21H382l-9.59,15.64H370Zm-2.42,11.43a4.59,4.59,0,1,1,4.58,4.37A4.29,4.29,0,0,1,377.15,125.27Zm6.79,0a2.21,2.21,0,1,0-2.21,2.32A2.16,2.16,0,0,0,383.94,125.27Z"/><path class="cls-6" d="M110,207.87h11.36v3H106.42v-1.54c0-4.9,2-6.37,7.35-7.48,2.79-.57,4.07-.87,4.07-2.07,0-1-1-1.72-3.38-1.72a11.29,11.29,0,0,0-6,1.66l-1.29-2.86a13.13,13.13,0,0,1,7.22-1.9c4.46,0,7.06,1.51,7.06,4.94s-2.64,4-6.83,4.9C111.59,205.48,110.26,205.87,110,207.87Z"/><path class="cls-6" d="M139.72,205.69c0,3.35-2.86,5.49-7.29,5.49-5.36,0-8.63-3-8.63-8s3.64-8.23,9.32-8.23a11.49,11.49,0,0,1,5.91,1.42l-1.13,2.85a8.65,8.65,0,0,0-4.58-1.17c-3.68,0-5.93,2-5.93,5.2v.23a8.16,8.16,0,0,1,6.37-2.67C137.46,200.86,139.72,202.7,139.72,205.69Zm-3.59.11c0-1.31-1-2-3.13-2a7.82,7.82,0,0,0-5.1,1.88c.75,1.52,2.34,2.35,4.57,2.35S136.13,207.18,136.13,205.8Z"/><path class="cls-6" d="M141.58,199.48a4.58,4.58,0,1,1,4.58,4.37A4.28,4.28,0,0,1,141.58,199.48Zm6.79,0a2.21,2.21,0,1,0-2.21,2.32A2.16,2.16,0,0,0,148.37,199.48Zm7.12-4.21h2.42l-9.59,15.64h-2.41Zm-2.41,11.43a4.58,4.58,0,1,1,4.58,4.37A4.28,4.28,0,0,1,153.08,206.7Zm6.78,0a2.21,2.21,0,1,0-2.2,2.32A2.15,2.15,0,0,0,159.86,206.7Z"/><path class="cls-6" d="M203.28,425.22c0,3.06-2.71,4.71-7.74,4.71-3.36,0-6.31-.78-8.17-2.18l1.31-2.85a11.62,11.62,0,0,0,6.81,1.93c2.74,0,4.21-.69,4.21-2,0-1.11-.88-1.59-2.92-1.59h-5v-3h4.49c2,0,2.85-.46,2.85-1.54s-1.25-1.86-3.66-1.86a11.37,11.37,0,0,0-6.07,1.63l-1.24-2.81a13.57,13.57,0,0,1,7.43-1.93c4.64,0,7.12,1.57,7.12,4.44a3.3,3.3,0,0,1-2.53,3.36C202.23,422.11,203.28,423.33,203.28,425.22Z"/><path class="cls-6" d="M218.35,426.62v3H205.91v-3h4.44v-9.24l-4.44,2.09v-3.36l4.44-2.09h3.54v12.6Z"/><path class="cls-6" d="M220.1,418.23a4.58,4.58,0,1,1,4.58,4.37A4.28,4.28,0,0,1,220.1,418.23Zm6.78,0a2.21,2.21,0,1,0-2.2,2.32A2.16,2.16,0,0,0,226.88,418.23ZM234,414h2.42l-9.59,15.64h-2.42Zm-2.41,11.43a4.58,4.58,0,1,1,4.57,4.37A4.28,4.28,0,0,1,231.6,425.45Zm6.78,0a2.21,2.21,0,1,0-2.21,2.32A2.16,2.16,0,0,0,238.38,425.45Z"/><path class="cls-6" d="M426.81,301.44h11.36v3H423.22v-1.54c0-4.9,2-6.37,7.36-7.47,2.78-.58,4.07-.88,4.07-2.07s-1-1.72-3.38-1.72a11.31,11.31,0,0,0-6,1.65L424,290.47a13.05,13.05,0,0,1,7.22-1.91c4.47,0,7.06,1.52,7.06,4.94s-2.64,4-6.83,4.9C428.39,299.05,427.06,299.44,426.81,301.44Z"/><path class="cls-6" d="M455.85,299.44c0,3.49-2.67,5.31-7.52,5.31a13.58,13.58,0,0,1-8-2.19l1.31-2.85a11.41,11.41,0,0,0,6.65,1.93c2.62,0,4-.73,4-2.13s-1.19-2-3.7-2a9.63,9.63,0,0,0-4.94,1.13l-2.49-.67.86-9.15h12.94v3H444.86l-.39,4.14a9.2,9.2,0,0,1,5.31-1.49C453.64,294.52,455.85,296.26,455.85,299.44Z"/><path class="cls-6" d="M457.76,293a4.59,4.59,0,1,1,4.58,4.37A4.28,4.28,0,0,1,457.76,293Zm6.79,0a2.21,2.21,0,1,0-2.21,2.33A2.16,2.16,0,0,0,464.55,293Zm7.13-4.2h2.41l-9.59,15.63h-2.41Zm-2.42,11.42a4.58,4.58,0,1,1,4.58,4.37A4.28,4.28,0,0,1,469.26,300.26Zm6.78,0a2.21,2.21,0,1,0-2.2,2.33A2.15,2.15,0,0,0,476,300.26Z"/></svg>