<svg id="Layer_1" data-name="Layer 1" xmlns="http://www.w3.org/2000/svg" viewBox="0 0 565 565"><defs><style>.cls-1{fill:#bdf3f4;}.cls-2{fill:#405659;}.cls-3{fill:#6e9399;}.cls-4{fill:#9cd2da;}.cls-5{fill:#8ab8bf;}.cls-6{fill:#fff;}</style></defs><path class="cls-1" d="M282.61,283,367,14.2a278.46,278.46,0,0,1,66.7,31Z"/><path class="cls-2" d="M282.61,283,114.77,56.7C189.76,1.08,278-13.78,367,14.2Z"/><path class="cls-3" d="M282.61,283,15.53,372.68c-39.63-118-.74-241.83,99.24-316Z"/><path class="cls-4" d="M282.61,283l70.84,272.69c-144.57,37.56-290.37-41.39-337.92-183Z"/><path class="cls-5" d="M282.61,283,433.73,45.21c131.32,83.46,170.12,257.57,86.66,388.9-40.06,63-94.65,102.79-166.94,121.57Z"/><path class="cls-6" d="M83.16,249.16H94v2.9H79.73v-1.47c0-4.68,2-6.09,7-7.14,2.66-.55,3.89-.84,3.89-2s-1-1.65-3.23-1.65a10.88,10.88,0,0,0-5.76,1.58l-1.23-2.72a12.51,12.51,0,0,1,6.9-1.82c4.26,0,6.75,1.45,6.75,4.72s-2.53,3.82-6.53,4.68C84.67,246.87,83.4,247.25,83.16,249.16Z"/><path class="cls-6" d="M96.34,244.59c0-4.57,3.25-7.73,8-7.73s7.95,3.16,7.95,7.73-3.25,7.73-7.95,7.73S96.34,249.16,96.34,244.59Zm12.48,0c0-2.86-1.78-4.72-4.53-4.72s-4.53,1.86-4.53,4.72,1.78,4.72,4.53,4.72S108.82,247.45,108.82,244.59Z"/><path class="cls-6" d="M114.11,241.14a4.37,4.37,0,1,1,4.37,4.18A4.09,4.09,0,0,1,114.11,241.14Zm6.48,0a2.11,2.11,0,1,0-2.11,2.22A2.06,2.06,0,0,0,120.59,241.14Zm6.81-4h2.31l-9.16,14.94h-2.31ZM125.09,248a4.38,4.38,0,1,1,4.38,4.17A4.1,4.1,0,0,1,125.09,248Zm6.49,0a2.11,2.11,0,1,0-2.11,2.22A2.06,2.06,0,0,0,131.58,248Z"/><path class="cls-6" d="M162.66,421.69h10.85v2.9H159.23v-1.47c0-4.68,2-6.09,7-7.14,2.66-.55,3.89-.84,3.89-2s-1-1.65-3.23-1.65a10.83,10.83,0,0,0-5.76,1.59l-1.23-2.73a12.53,12.53,0,0,1,6.9-1.82c4.27,0,6.75,1.45,6.75,4.72s-2.53,3.82-6.53,4.68C164.17,419.41,162.9,419.78,162.66,421.69Z"/><path class="cls-6" d="M191.22,421.32H189v3.27h-3.38v-3.27H175.47v-3.39l9.82-8.28H189v8.77h2.2Zm-5.58-2.9V413l-6.42,5.41Z"/><path class="cls-6" d="M192.84,413.67a4.38,4.38,0,1,1,4.38,4.18A4.09,4.09,0,0,1,192.84,413.67Zm6.48,0a2.11,2.11,0,1,0-2.1,2.22A2.05,2.05,0,0,0,199.32,413.67Zm6.82-4h2.3l-9.16,14.94H197Zm-2.31,10.92a4.37,4.37,0,1,1,4.37,4.18A4.09,4.09,0,0,1,203.83,420.57Zm6.48,0a2.11,2.11,0,1,0-2.11,2.22A2.06,2.06,0,0,0,210.31,420.57Z"/><path class="cls-6" d="M422.57,296.2c0,2.92-2.59,4.51-7.41,4.51a13.28,13.28,0,0,1-7.8-2.09l1.26-2.73a10.94,10.94,0,0,0,6.5,1.85c2.61,0,4-.66,4-1.91,0-1.06-.83-1.52-2.79-1.52h-4.81v-2.85h4.28c1.91,0,2.73-.44,2.73-1.48s-1.19-1.78-3.5-1.78a10.93,10.93,0,0,0-5.8,1.56l-1.18-2.68a12.9,12.9,0,0,1,7.09-1.84c4.44,0,6.81,1.49,6.81,4.24a3.16,3.16,0,0,1-2.41,3.21C421.56,293.24,422.57,294.4,422.57,296.2Z"/><path class="cls-6" d="M438.52,285.5v2.57L430,300.44h-4.11l8.39-12h-10v-2.9Z"/><path class="cls-6" d="M440.12,289.52a4.37,4.37,0,1,1,4.37,4.18A4.09,4.09,0,0,1,440.12,289.52Zm6.48,0a2.11,2.11,0,1,0-2.11,2.22A2.06,2.06,0,0,0,446.6,289.52Zm6.81-4h2.31l-9.16,14.94h-2.31Zm-2.31,10.92a4.38,4.38,0,1,1,4.38,4.18A4.1,4.1,0,0,1,451.1,296.42Zm6.49,0a2.11,2.11,0,1,0-2.11,2.22A2.06,2.06,0,0,0,457.59,296.42Z"/><path class="cls-6" d="M237.31,89.74v2.9H225.42v-2.9h4.24V80.91l-4.24,2V79.7l4.24-2h3.39v12Z"/><path class="cls-6" d="M253.83,87.83c0,3.34-2.55,5.07-7.19,5.07A13,13,0,0,1,239,90.82l1.25-2.73a10.93,10.93,0,0,0,6.35,1.85c2.5,0,3.8-.71,3.8-2S249.26,86,246.86,86a9.29,9.29,0,0,0-4.72,1.08l-2.37-.64.81-8.74H253v2.9h-9.62l-.38,4A8.85,8.85,0,0,1,248,83.13C251.72,83.13,253.83,84.8,253.83,87.83Z"/><path class="cls-6" d="M255.65,81.72A4.37,4.37,0,1,1,260,85.89,4.1,4.1,0,0,1,255.65,81.72Zm6.48,0A2.11,2.11,0,1,0,260,83.94,2.06,2.06,0,0,0,262.13,81.72Zm6.81-4h2.31l-9.16,14.94h-2.31Zm-2.3,10.92A4.37,4.37,0,1,1,271,92.79,4.1,4.1,0,0,1,266.64,88.62Zm6.48,0A2.11,2.11,0,1,0,271,90.84,2.06,2.06,0,0,0,273.12,88.62Z"/><path class="cls-6" d="M370.11,97.69h-2.2V101h-3.38V97.69H354.35V94.3L364.17,86h3.74v8.77h2.2Zm-5.58-2.9V89.38l-6.42,5.41Z"/><path class="cls-6" d="M371.73,90a4.37,4.37,0,1,1,4.37,4.17A4.09,4.09,0,0,1,371.73,90Zm6.48,0a2.11,2.11,0,1,0-2.11,2.22A2.06,2.06,0,0,0,378.21,90ZM385,86h2.31L378.17,101h-2.31Zm-2.3,10.92a4.37,4.37,0,1,1,4.37,4.17A4.1,4.1,0,0,1,382.72,96.94Zm6.48,0a2.11,2.11,0,1,0-2.11,2.22A2.06,2.06,0,0,0,389.2,96.94Z"/></svg>