<svg id="Layer_1" data-name="Layer 1" xmlns="http://www.w3.org/2000/svg" viewBox="0 0 565 565"><defs><style>.cls-1{fill:#bdf3f4;}.cls-2{fill:#405659;}.cls-3{fill:#6e9399;}.cls-4{fill:#9cd2da;}.cls-5{fill:#8ab8bf;}.cls-6{fill:#fff;}</style></defs><path class="cls-1" d="M282,282.33,128.75,46.39C175.66,15.92,226,1,282,1Z"/><path class="cls-2" d="M282,282.33,9,214.27C27,141.9,66.2,87,128.75,46.39Z"/><path class="cls-3" d="M282,282.33,66.46,463.16C6.54,391.75-13.55,304.72,9,214.27Z"/><path class="cls-4" d="M282,282.33,477.4,484.7C365.63,592.63,187.53,589.52,79.6,477.75c-4.32-4.47-9.15-9.83-13.14-14.59Z"/><path class="cls-5" d="M282,282.33V1C437.34,1,563.3,127,563.3,282.33c0,80.79-27.79,146.24-85.9,202.37Z"/><path class="cls-2" d="M415.5,233.05c0,3.06-2.71,4.72-7.75,4.72a13.87,13.87,0,0,1-8.16-2.19l1.31-2.85a11.51,11.51,0,0,0,6.8,1.93c2.74,0,4.21-.69,4.21-2,0-1.1-.87-1.59-2.92-1.59h-5v-3h4.48c2,0,2.85-.46,2.85-1.54s-1.24-1.86-3.66-1.86a11.49,11.49,0,0,0-6.07,1.63l-1.24-2.8a13.54,13.54,0,0,1,7.43-1.93c4.65,0,7.13,1.56,7.13,4.43a3.3,3.3,0,0,1-2.53,3.36C414.44,230,415.5,231.17,415.5,233.05Z"/><path class="cls-2" d="M434.06,233.19c0,2.92-3,4.58-8.21,4.58s-8.21-1.66-8.21-4.58c0-1.91,1.29-3.17,3.73-3.77-2-.62-3.11-1.82-3.11-3.52,0-2.76,2.74-4.32,7.59-4.32s7.59,1.56,7.59,4.32c0,1.7-1.08,2.9-3.11,3.52C432.77,230,434.06,231.28,434.06,233.19Zm-3.59-.37c0-1.17-1.28-1.75-3.88-1.75h-1.47c-2.6,0-3.89.58-3.89,1.75s1.52,1.84,4.62,1.84S430.47,234.06,430.47,232.82Zm-8.62-6.39c0,1.08,1.15,1.65,3.27,1.65h1.47c2.11,0,3.26-.57,3.26-1.65s-1.31-1.75-4-1.75S421.85,225.26,421.85,226.43Z"/><path class="cls-2" d="M436,226.06a4.58,4.58,0,1,1,4.58,4.37A4.28,4.28,0,0,1,436,226.06Zm6.78,0a2.21,2.21,0,1,0-2.2,2.32A2.15,2.15,0,0,0,442.73,226.06Zm7.13-4.21h2.42l-9.59,15.64h-2.42Zm-2.41,11.43a4.58,4.58,0,1,1,4.57,4.37A4.28,4.28,0,0,1,447.45,233.28Zm6.78,0A2.21,2.21,0,1,0,452,235.6,2.16,2.16,0,0,0,454.23,233.28Z"/><path class="cls-2" d="M246.59,439.2H258v3H243V440.7c0-4.9,2.05-6.37,7.36-7.48,2.78-.57,4.07-.87,4.07-2.07,0-1-1-1.72-3.38-1.72a11.4,11.4,0,0,0-6,1.65l-1.28-2.85a13,13,0,0,1,7.22-1.91c4.46,0,7.06,1.52,7.06,4.95s-2.65,4-6.83,4.9C248.17,436.81,246.84,437.2,246.59,439.2Z"/><path class="cls-2" d="M276.3,437c0,3.35-2.85,5.49-7.29,5.49-5.36,0-8.62-3-8.62-7.95s3.63-8.24,9.31-8.24a11.46,11.46,0,0,1,5.91,1.43l-1.13,2.85a8.64,8.64,0,0,0-4.57-1.17c-3.68,0-5.94,1.95-5.94,5.2v.23a8.18,8.18,0,0,1,6.37-2.67C274.05,432.19,276.3,434,276.3,437Zm-3.59.11c0-1.31-1-1.95-3.12-1.95a7.82,7.82,0,0,0-5.11,1.88c.76,1.52,2.35,2.35,4.58,2.35S272.71,438.51,272.71,437.13Z"/><path class="cls-2" d="M278.17,430.81a4.58,4.58,0,1,1,4.57,4.37A4.28,4.28,0,0,1,278.17,430.81Zm6.78,0a2.21,2.21,0,1,0-2.21,2.32A2.16,2.16,0,0,0,285,430.81Zm7.13-4.21h2.41l-9.59,15.64h-2.41ZM289.66,438a4.59,4.59,0,1,1,4.58,4.37A4.28,4.28,0,0,1,289.66,438Zm6.79,0a2.21,2.21,0,1,0-2.21,2.32A2.16,2.16,0,0,0,296.45,438Z"/><path class="cls-2" d="M95.38,325.92v3H82.94v-3h4.44v-9.25l-4.44,2.1v-3.36l4.44-2.09h3.54v12.6Z"/><path class="cls-2" d="M112.68,323.92c0,3.49-2.67,5.31-7.52,5.31a13.65,13.65,0,0,1-8-2.18l1.31-2.86a11.38,11.38,0,0,0,6.64,1.94c2.62,0,4-.74,4-2.14s-1.19-2-3.7-2a9.7,9.7,0,0,0-5,1.13L98,322.47l.85-9.15h13v3H101.69l-.39,4.14a9.15,9.15,0,0,1,5.31-1.49C110.47,319,112.68,320.75,112.68,323.92Z"/><path class="cls-2" d="M114.59,317.53a4.58,4.58,0,1,1,4.58,4.36A4.28,4.28,0,0,1,114.59,317.53Zm6.78,0a2.21,2.21,0,1,0-2.2,2.32A2.16,2.16,0,0,0,121.37,317.53Zm7.13-4.21h2.42L121.33,329h-2.42Zm-2.41,11.43a4.58,4.58,0,1,1,4.57,4.37A4.28,4.28,0,0,1,126.09,324.75Zm6.78,0a2.21,2.21,0,1,0-2.21,2.32A2.16,2.16,0,0,0,132.87,324.75Z"/><path class="cls-2" d="M107.4,181.76v3H95v-3H99.4v-9.24L95,174.61v-3.36l4.44-2.09h3.54v12.6Z"/><path class="cls-2" d="M113,181.76h11.36v3h-15v-1.54c0-4.89,2-6.37,7.36-7.47,2.78-.57,4.07-.87,4.07-2.07s-1-1.72-3.38-1.72a11.4,11.4,0,0,0-6,1.65l-1.28-2.85a13,13,0,0,1,7.22-1.91c4.46,0,7.06,1.52,7.06,5s-2.65,4-6.83,4.89C114.53,179.37,113.2,179.76,113,181.76Z"/><path class="cls-2" d="M126.45,173.37a4.58,4.58,0,1,1,4.58,4.37A4.28,4.28,0,0,1,126.45,173.37Zm6.78,0a2.21,2.21,0,1,0-2.2,2.32A2.16,2.16,0,0,0,133.23,173.37Zm7.13-4.21h2.42l-9.59,15.63h-2.42ZM138,180.59a4.58,4.58,0,1,1,4.57,4.37A4.28,4.28,0,0,1,138,180.59Zm6.78,0a2.21,2.21,0,1,0-2.21,2.32A2.16,2.16,0,0,0,144.73,180.59Z"/><path class="cls-2" d="M218.28,90.82c0,5-3.64,8.24-9.32,8.24a11.45,11.45,0,0,1-5.9-1.43l1.12-2.85A8.65,8.65,0,0,0,208.76,96c3.68,0,5.93-2,5.93-5.2v-.23a8.16,8.16,0,0,1-6.37,2.67c-3.7,0-6-1.84-6-4.83,0-3.35,2.86-5.49,7.29-5.49C215,82.87,218.28,85.88,218.28,90.82Zm-4.1-2.5c-.75-1.52-2.34-2.35-4.57-2.35s-3.66.9-3.66,2.28,1,2,3.13,2A7.8,7.8,0,0,0,214.18,88.32Z"/><path class="cls-2" d="M220.37,87.35A4.59,4.59,0,1,1,225,91.72,4.29,4.29,0,0,1,220.37,87.35Zm6.79,0A2.21,2.21,0,1,0,225,89.67,2.16,2.16,0,0,0,227.16,87.35Zm7.13-4.21h2.41l-9.59,15.64H224.7Zm-2.42,11.43a4.58,4.58,0,1,1,4.58,4.37A4.29,4.29,0,0,1,231.87,94.57Zm6.78,0a2.21,2.21,0,1,0-2.2,2.32A2.15,2.15,0,0,0,238.65,94.57Z"/><path class="cls-6" d="M413.62,232.05c0,3.06-2.71,4.72-7.74,4.72a13.93,13.93,0,0,1-8.17-2.19l1.31-2.85a11.55,11.55,0,0,0,6.81,1.93c2.74,0,4.21-.69,4.21-2,0-1.1-.88-1.59-2.92-1.59h-5v-3h4.49c2,0,2.85-.46,2.85-1.54s-1.24-1.86-3.66-1.86a11.46,11.46,0,0,0-6.07,1.63l-1.24-2.8a13.49,13.49,0,0,1,7.43-1.93c4.64,0,7.12,1.56,7.12,4.43a3.3,3.3,0,0,1-2.52,3.36C412.57,229,413.62,230.17,413.62,232.05Z"/><path class="cls-6" d="M432.19,232.19c0,2.92-3,4.58-8.21,4.58s-8.21-1.66-8.21-4.58c0-1.91,1.29-3.17,3.72-3.77-2-.62-3.1-1.82-3.1-3.52,0-2.76,2.73-4.32,7.59-4.32s7.59,1.56,7.59,4.32c0,1.7-1.09,2.9-3.11,3.52C430.9,229,432.19,230.28,432.19,232.19Zm-3.59-.37c0-1.17-1.29-1.75-3.89-1.75h-1.47c-2.6,0-3.89.58-3.89,1.75s1.52,1.84,4.63,1.84S428.6,233.06,428.6,231.82ZM420,225.43c0,1.08,1.15,1.65,3.26,1.65h1.47c2.12,0,3.27-.57,3.27-1.65s-1.31-1.75-4-1.75S420,224.26,420,225.43Z"/><path class="cls-6" d="M434.08,225.06a4.58,4.58,0,1,1,4.57,4.37A4.28,4.28,0,0,1,434.08,225.06Zm6.78,0a2.21,2.21,0,1,0-2.21,2.32A2.16,2.16,0,0,0,440.86,225.06Zm7.13-4.21h2.41l-9.59,15.64H438.4Zm-2.42,11.43a4.59,4.59,0,1,1,4.58,4.37A4.29,4.29,0,0,1,445.57,232.28Zm6.79,0a2.21,2.21,0,1,0-2.21,2.32A2.16,2.16,0,0,0,452.36,232.28Z"/><path class="cls-6" d="M244.71,438.2h11.36v3H241.13V439.7c0-4.9,2-6.37,7.35-7.48,2.79-.57,4.07-.87,4.07-2.07,0-1-1-1.72-3.38-1.72a11.37,11.37,0,0,0-6,1.65l-1.29-2.85a13.05,13.05,0,0,1,7.22-1.91c4.46,0,7.06,1.52,7.06,4.95s-2.64,4-6.83,4.9C246.3,435.81,245,436.2,244.71,438.2Z"/><path class="cls-6" d="M274.43,436c0,3.35-2.86,5.49-7.29,5.49-5.36,0-8.63-3-8.63-7.95s3.64-8.24,9.32-8.24a11.49,11.49,0,0,1,5.91,1.43l-1.13,2.85a8.65,8.65,0,0,0-4.58-1.17c-3.68,0-5.93,1.95-5.93,5.2v.23a8.16,8.16,0,0,1,6.37-2.67C272.17,431.19,274.43,433,274.43,436Zm-3.59.11c0-1.31-1-1.95-3.13-1.95a7.82,7.82,0,0,0-5.1,1.88c.76,1.52,2.34,2.35,4.57,2.35S270.84,437.51,270.84,436.13Z"/><path class="cls-6" d="M276.29,429.81a4.58,4.58,0,1,1,4.58,4.37A4.28,4.28,0,0,1,276.29,429.81Zm6.79,0a2.21,2.21,0,1,0-2.21,2.32A2.16,2.16,0,0,0,283.08,429.81Zm7.13-4.21h2.41L283,441.24h-2.41ZM287.79,437a4.58,4.58,0,1,1,4.58,4.37A4.28,4.28,0,0,1,287.79,437Zm6.78,0a2.21,2.21,0,1,0-2.2,2.32A2.15,2.15,0,0,0,294.57,437Z"/><path class="cls-6" d="M93.51,324.92v3H81.07v-3h4.44v-9.25l-4.44,2.1v-3.36l4.44-2.09h3.54v12.6Z"/><path class="cls-6" d="M110.8,322.92c0,3.49-2.66,5.31-7.51,5.31a13.69,13.69,0,0,1-8-2.18l1.31-2.86a11.43,11.43,0,0,0,6.65,1.94c2.62,0,4-.74,4-2.14s-1.2-2-3.71-2a9.68,9.68,0,0,0-4.94,1.13l-2.48-.67.85-9.15h12.94v3H99.81l-.39,4.14a9.2,9.2,0,0,1,5.31-1.49C108.6,318,110.8,319.75,110.8,322.92Z"/><path class="cls-6" d="M112.72,316.53a4.58,4.58,0,1,1,4.57,4.36A4.28,4.28,0,0,1,112.72,316.53Zm6.78,0a2.21,2.21,0,1,0-2.21,2.32A2.16,2.16,0,0,0,119.5,316.53Zm7.13-4.21H129L119.45,328H117Zm-2.42,11.43a4.59,4.59,0,1,1,4.58,4.37A4.28,4.28,0,0,1,124.21,323.75Zm6.79,0a2.21,2.21,0,1,0-2.21,2.32A2.16,2.16,0,0,0,131,323.75Z"/><path class="cls-6" d="M105.53,180.76v3H93.09v-3h4.44v-9.24l-4.44,2.09v-3.36l4.44-2.09h3.54v12.6Z"/><path class="cls-6" d="M111.07,180.76h11.36v3H107.49v-1.55c0-4.89,2-6.36,7.35-7.47,2.79-.57,4.07-.87,4.07-2.07s-1-1.72-3.38-1.72a11.37,11.37,0,0,0-6,1.65l-1.29-2.85a13.05,13.05,0,0,1,7.22-1.91c4.46,0,7.06,1.52,7.06,5s-2.64,4-6.83,4.89C112.66,178.37,111.33,178.76,111.07,180.76Z"/><path class="cls-6" d="M124.58,172.37a4.58,4.58,0,1,1,4.57,4.37A4.28,4.28,0,0,1,124.58,172.37Zm6.78,0a2.21,2.21,0,1,0-2.21,2.32A2.16,2.16,0,0,0,131.36,172.37Zm7.13-4.21h2.41l-9.59,15.64H128.9Zm-2.42,11.43a4.58,4.58,0,1,1,4.58,4.37A4.28,4.28,0,0,1,136.07,179.59Zm6.79,0a2.21,2.21,0,1,0-2.21,2.32A2.16,2.16,0,0,0,142.86,179.59Z"/><path class="cls-6" d="M216.4,89.82c0,5-3.63,8.24-9.31,8.24a11.46,11.46,0,0,1-5.91-1.43l1.13-2.85A8.64,8.64,0,0,0,206.88,95c3.68,0,5.94-2,5.94-5.2v-.23a8.18,8.18,0,0,1-6.37,2.67c-3.71,0-6-1.84-6-4.83,0-3.35,2.85-5.49,7.29-5.49C213.14,81.87,216.4,84.88,216.4,89.82Zm-4.09-2.5C211.55,85.8,210,85,207.73,85s-3.65.9-3.65,2.28,1,2,3.13,2A7.82,7.82,0,0,0,212.31,87.32Z"/><path class="cls-6" d="M218.5,86.35a4.58,4.58,0,1,1,4.58,4.37A4.29,4.29,0,0,1,218.5,86.35Zm6.78,0a2.21,2.21,0,1,0-2.2,2.32A2.15,2.15,0,0,0,225.28,86.35Zm7.13-4.21h2.42l-9.59,15.64h-2.42ZM230,93.57a4.58,4.58,0,1,1,4.57,4.37A4.28,4.28,0,0,1,230,93.57Zm6.78,0a2.21,2.21,0,1,0-2.21,2.32A2.16,2.16,0,0,0,236.78,93.57Z"/></svg>